<?xml version="1.0" encoding="UTF-8"?>
<svg xmlns="http://www.w3.org/2000/svg" width="1200" height="630" viewBox="0 0 1200 630">
  <defs>
    <radialGradient id="bg" cx="35%" cy="40%" r="80%">
      <stop offset="0%" stop-color="#1a253f"></stop>
      <stop offset="60%" stop-color="#0e1729"></stop>
      <stop offset="100%" stop-color="#080f1d"></stop>
    </radialGradient>
  </defs>
  <rect width="1200" height="630" fill="url(#bg)"></rect>
  <g transform="translate(100 135) scale(1.8)">
    <defs><radialGradient id="haze-og" cx="50%" cy="50%" r="50%"><stop offset="0%" stop-color="#c9a16a" stop-opacity="0.42"></stop><stop offset="28%" stop-color="#c9a16a" stop-opacity="0.16"></stop><stop offset="70%" stop-color="#c9a16a" stop-opacity="0"></stop></radialGradient></defs><circle cx="100" cy="100" r="50" fill="url(#haze-og)"></circle><g stroke="#c9a16a" stroke-width="2" stroke-linecap="round" fill="none"><path d="M 100 16 C 112.6 39.1, 112.6 62.9, 100 86"></path><path d="M 142.43 57.57 C 137.55 74.16, 126.49 85.22, 109.9 90.1"></path><path d="M 184 100 C 160.9 112.6, 137.1 112.6, 114 100"></path><path d="M 142.43 142.43 C 125.84 137.55, 114.78 126.49, 109.9 109.9"></path><path d="M 100 184 C 87.4 160.9, 87.4 137.1, 100 114"></path><path d="M 57.57 142.43 C 62.45 125.84, 73.51 114.78, 90.1 109.9"></path><path d="M 16 100 C 39.1 87.4, 62.9 87.4, 86 100"></path><path d="M 57.57 57.57 C 74.16 62.45, 85.22 73.51, 90.1 90.1"></path></g><g fill="#c9a16a"><circle cx="100" cy="16" r="4"></circle><circle cx="142.43" cy="57.57" r="4"></circle><circle cx="184" cy="100" r="4"></circle><circle cx="142.43" cy="142.43" r="4"></circle><circle cx="100" cy="184" r="4"></circle><circle cx="57.57" cy="142.43" r="4"></circle><circle cx="16" cy="100" r="4"></circle><circle cx="57.57" cy="57.57" r="4"></circle></g><g fill="#c9a16a"><circle cx="110.58" cy="37" r="1.9"></circle><circle cx="137.59" cy="72.25" r="1.9"></circle><circle cx="163" cy="110.58" r="1.9"></circle><circle cx="127.75" cy="137.59" r="1.9"></circle><circle cx="89.42" cy="163" r="1.9"></circle><circle cx="62.41" cy="127.75" r="1.9"></circle><circle cx="37" cy="89.42" r="1.9"></circle><circle cx="72.25" cy="62.41" r="1.9"></circle></g><circle cx="100" cy="100" r="11" stroke="#c9a16a" stroke-width="1.40" fill="none" opacity="0.85"></circle><g stroke="#c9a16a" stroke-width="1.80" stroke-linecap="round"><line x1="100" y1="76" x2="100" y2="97"></line><line x1="100" y1="103" x2="100" y2="124"></line><line x1="76" y1="100" x2="97" y2="100"></line><line x1="103" y1="100" x2="124" y2="100"></line></g><circle cx="100" cy="100" r="1.8" fill="#c9a16a"></circle>
  </g>
  <text x="540" y="240" font-family="&#39;Inter&#39;,&#39;Helvetica Neue&#39;,Helvetica,Arial,sans-serif" font-size="76" font-weight="200" letter-spacing="-3" fill="#f4ede0">Woven<tspan fill="#c9a16a">Map</tspan></text>
  <text x="540" y="340" font-family="&#39;Inter&#39;,&#39;Helvetica Neue&#39;,Helvetica,Arial,sans-serif" font-size="38" font-weight="300" letter-spacing="-1" fill="#f4ede0">You&#39;re running on a map</text>
  <text x="540" y="390" font-family="&#39;Inter&#39;,&#39;Helvetica Neue&#39;,Helvetica,Arial,sans-serif" font-size="38" font-weight="300" font-style="italic" letter-spacing="-1" fill="#c9a16a">you can&#39;t see.</text>
  <text x="540" y="475" font-family="&#39;Inter&#39;,&#39;Helvetica Neue&#39;,Helvetica,Arial,sans-serif" font-size="18" font-weight="300" letter-spacing="6" fill="#f4ede0" opacity="0.55">COMING SOON  ·  WOVENMAP.COM</text>
  <line x1="540" y1="500" x2="640" y2="500" stroke="#c9a16a" stroke-width="1.5" opacity="0.5"></line>
</svg>