<?xml version="1.0" encoding="UTF-8"?>

<svg xmlns="http://www.w3.org/2000/svg" width="512" height="512" viewBox="0 0 200 200" role="img" aria-labelledby="t">
  <title id="t">WovenMap mark — cream, transparent</title>
  
  <g stroke="#f4ede0" stroke-width="2" stroke-linecap="round" fill="none"><path d="M 100 16 C 112.6 39.1, 112.6 62.9, 100 86"></path><path d="M 142.43 57.57 C 137.55 74.16, 126.49 85.22, 109.9 90.1"></path><path d="M 184 100 C 160.9 112.6, 137.1 112.6, 114 100"></path><path d="M 142.43 142.43 C 125.84 137.55, 114.78 126.49, 109.9 109.9"></path><path d="M 100 184 C 87.4 160.9, 87.4 137.1, 100 114"></path><path d="M 57.57 142.43 C 62.45 125.84, 73.51 114.78, 90.1 109.9"></path><path d="M 16 100 C 39.1 87.4, 62.9 87.4, 86 100"></path><path d="M 57.57 57.57 C 74.16 62.45, 85.22 73.51, 90.1 90.1"></path></g><g fill="#f4ede0"><circle cx="100" cy="16" r="4"></circle><circle cx="142.43" cy="57.57" r="4"></circle><circle cx="184" cy="100" r="4"></circle><circle cx="142.43" cy="142.43" r="4"></circle><circle cx="100" cy="184" r="4"></circle><circle cx="57.57" cy="142.43" r="4"></circle><circle cx="16" cy="100" r="4"></circle><circle cx="57.57" cy="57.57" r="4"></circle></g><g fill="#f4ede0"><circle cx="110.58" cy="37" r="1.9"></circle><circle cx="137.59" cy="72.25" r="1.9"></circle><circle cx="163" cy="110.58" r="1.9"></circle><circle cx="127.75" cy="137.59" r="1.9"></circle><circle cx="89.42" cy="163" r="1.9"></circle><circle cx="62.41" cy="127.75" r="1.9"></circle><circle cx="37" cy="89.42" r="1.9"></circle><circle cx="72.25" cy="62.41" r="1.9"></circle></g><circle cx="100" cy="100" r="11" stroke="#f4ede0" stroke-width="1.40" fill="none" opacity="0.85"></circle><g stroke="#f4ede0" stroke-width="1.80" stroke-linecap="round"><line x1="100" y1="76" x2="100" y2="97"></line><line x1="100" y1="103" x2="100" y2="124"></line><line x1="76" y1="100" x2="97" y2="100"></line><line x1="103" y1="100" x2="124" y2="100"></line></g><g stroke="#f4ede0" stroke-width="1.40" stroke-linecap="round" opacity="0.55"><line x1="100" y1="4" x2="100" y2="13"></line><line x1="100" y1="187" x2="100" y2="196"></line><line x1="4" y1="100" x2="13" y2="100"></line><line x1="187" y1="100" x2="196" y2="100"></line></g><circle cx="100" cy="100" r="1.8" fill="#f4ede0"></circle>
</svg>