<?xml version="1.0" encoding="UTF-8"?>
<svg xmlns="http://www.w3.org/2000/svg" width="64" height="64" viewBox="0 0 200 200">
  <rect width="200" height="200" rx="37.5" ry="37.5" fill="#0e1729"></rect>
  <g stroke="#c9a16a" stroke-width="5" stroke-linecap="round" fill="none"><path d="M 100 16 C 112.6 39.1, 112.6 62.9, 100 86"></path><path d="M 142.43 57.57 C 137.55 74.16, 126.49 85.22, 109.9 90.1"></path><path d="M 184 100 C 160.9 112.6, 137.1 112.6, 114 100"></path><path d="M 142.43 142.43 C 125.84 137.55, 114.78 126.49, 109.9 109.9"></path><path d="M 100 184 C 87.4 160.9, 87.4 137.1, 100 114"></path><path d="M 57.57 142.43 C 62.45 125.84, 73.51 114.78, 90.1 109.9"></path><path d="M 16 100 C 39.1 87.4, 62.9 87.4, 86 100"></path><path d="M 57.57 57.57 C 74.16 62.45, 85.22 73.51, 90.1 90.1"></path></g><g fill="#c9a16a"><circle cx="100" cy="16" r="4"></circle><circle cx="142.43" cy="57.57" r="4"></circle><circle cx="184" cy="100" r="4"></circle><circle cx="142.43" cy="142.43" r="4"></circle><circle cx="100" cy="184" r="4"></circle><circle cx="57.57" cy="142.43" r="4"></circle><circle cx="16" cy="100" r="4"></circle><circle cx="57.57" cy="57.57" r="4"></circle></g><circle cx="100" cy="100" r="11" stroke="#c9a16a" stroke-width="3.50" fill="none" opacity="0.85"></circle><circle cx="100" cy="100" r="2.5" fill="#c9a16a"></circle>
</svg>